<?xml version="1.0" encoding="UTF-8"?>
<svg id="Icons" xmlns="http://www.w3.org/2000/svg" version="1.1" viewBox="0 0 800 800">
  <defs>
    <style>
      .cls-1 {
        fill: #5085a5;
        stroke-width: 0px;
      }
    </style>
  </defs>
  <path class="cls-1" d="M725,597.5v-5c0-2.5-2.5-2.5-2.5-5s-2.5-2.5-2.5-5-2.5-2.5-5-2.5l-2.5-2.5-265-132.5c12.5-17.5,12.5-40,5-60l-25-65v-45h25c7.5,0,15-5,20-10l50-75c0-5,2.5-10,2.5-15v-100c0-15-10-25-25-25h-200c-15,0-25,10-25,25v100c0,5,2.5,10,5,15l50,75c5,7.5,12.5,10,20,10h25v50c0,2.5,0,7.5,2.5,10l27.5,70c2.5,7.5,0,12.5-2.5,15s-5,7.5-12.5,7.5-15-7.5-15-15v-12.5c0-15-10-25-25-25s-25,10-25,25v10c0,15,5,30,15,42.5l-252.5,125-2.5,2.5c-2.5,0-2.5,2.5-5,2.5,0,0-2.5,2.5-2.5,5s-2.5,2.5-2.5,5v132.5c0,15,10,25,25,25h600c15,0,25-10,25-25v-127.5ZM400,477.5l195,97.5H205l195-97.5Z"/>
</svg>