<?xml version="1.0" encoding="UTF-8"?>
<svg id="Layer_1" data-name="Layer 1" xmlns="http://www.w3.org/2000/svg" version="1.1" viewBox="0 0 512 512">
  <defs>
    <style>
      .cls-1 {
        fill: #5085a5;
        stroke-width: 0px;
      }
    </style>
  </defs>
  <path class="cls-1" d="M298.4,248c2.2,0,4-1.8,4-4,0-1-.4-2.1-1.1-2.8l-78.4-79.7c-1.6-1.6-4.1-1.6-5.7,0-.8.8-1.2,1.8-1.2,2.9v71.7c0,6.6,5.4,12,12,12h70.4Z"/>
  <path class="cls-1" d="M197,267c-8.3-8.2-13-19.3-13-31v-92h-72c-35.3.1-63.9,28.7-64,64v224c0,35.3,28.7,64,64,64h144c35.3,0,64-28.7,64-64v-152h-92c-11.7,0-22.8-4.7-31-13Z"/>
  <path class="cls-1" d="M372,120h70.4c2.2,0,4-1.8,4-4,0-1-.4-2.1-1.1-2.8l-78.4-79.7c-1.6-1.6-4.1-1.6-5.7,0-.8.8-1.2,1.8-1.2,2.9v71.7c0,6.6,5.4,12,12,12Z"/>
  <path class="cls-1" d="M372,152c-24.2-.2-43.8-19.8-44-44V16h-108c-33.1,0-60,26.9-60,60v36h42.1c10.9,0,21.3,4.4,28.9,12.1l109.2,111c7.6,7.7,11.9,18.2,11.8,29v135.9h53c32.5,0,59-26.9,59-60v-188h-92Z"/>
</svg>