<?xml version="1.0" encoding="UTF-8"?>
<svg id="Capa_1" data-name="Capa 1" xmlns="http://www.w3.org/2000/svg" version="1.1" viewBox="0 0 512 512">
  <defs>
    <style>
      .cls-1 {
        fill: #5085a5;
        stroke-width: 0px;
      }
    </style>
  </defs>
  <path class="cls-1" d="M0,7.5v391c33.5,0,61-27.5,61-61V68.5C61,35,33.5,7.5,0,7.5Z"/>
  <rect class="cls-1" x="307" y="369.5" width="42" height="75"/>
  <rect class="cls-1" x="307" y="474.5" width="42" height="30"/>
  <path class="cls-1" d="M328,98.5c-11.6,0-21,9.4-21,21v220h42V119.5c0-11.6-9.4-21-21-21Z"/>
  <path class="cls-1" d="M112,98.5c-11.6,0-21,9.4-21,21v168c0,11.6,9.4,21,21,21s21-9.4,21-21V119.5c0-11.6-9.4-21-21-21Z"/>
  <path class="cls-1" d="M184,98.5c-11.6,0-21,9.4-21,21v168c0,11.6,9.4,21,21,21s21-9.4,21-21V119.5c0-11.6-9.4-21-21-21Z"/>
  <path class="cls-1" d="M256,98.5c-11.6,0-21,9.4-21,21v168c0,11.6,9.4,21,21,21s21-9.4,21-21V119.5c0-11.6-9.4-21-21-21Z"/>
  <path class="cls-1" d="M400,98.5c-11.6,0-21,9.4-21,21v168c0,11.6,9.4,21,21,21s21-9.4,21-21V119.5c0-11.6-9.4-21-21-21Z"/>
  <path class="cls-1" d="M451,68.5v269c0,33.5,27.5,61,61,61V7.5c-33.5,0-61,27.5-61,61Z"/>
</svg>