<?xml version="1.0" encoding="UTF-8"?>
<svg id="Layer_1" data-name="Layer 1" xmlns="http://www.w3.org/2000/svg" version="1.1" viewBox="0 0 638 638">
  <defs>
    <style>
      .cls-1 {
        fill: #5085a5;
        fill-rule: evenodd;
        stroke-width: 0px;
      }
    </style>
  </defs>
  <path class="cls-1" d="M105.2,54.9c-19.5,19.5-19.5,51-19.5,113.8v300c0,62.9,0,94.3,19.5,113.8,19.5,19.5,51,19.5,113.8,19.5h200c62.9,0,94.3,0,113.8-19.5s19.5-51,19.5-113.8V168.7c0-62.9,0-94.3-19.5-113.8-19.5-19.5-51-19.5-113.8-19.5h-200c-62.9,0-94.3,0-113.8,19.5ZM219,168.7c-18.4,0-33.3,14.9-33.3,33.3s14.9,33.3,33.3,33.3h200c18.4,0,33.3-14.9,33.3-33.3s-14.9-33.3-33.3-33.3h-200ZM219,302c-18.4,0-33.3,14.9-33.3,33.3s14.9,33.3,33.3,33.3h200c18.4,0,33.3-14.9,33.3-33.3s-14.9-33.3-33.3-33.3h-200ZM219,435.3c-18.4,0-33.3,14.9-33.3,33.3s14.9,33.3,33.3,33.3h133.3c18.4,0,33.3-14.9,33.3-33.3s-14.9-33.3-33.3-33.3h-133.3Z"/>
</svg>